<?xml version="1.0" encoding="UTF-8" standalone="no"?><svg width="16px" height="16px" viewBox="0 0 16 16" version="1.1" xmlns="http://www.w3.org/2000/svg" xmlns:xlink="http://www.w3.org/1999/xlink">        <title>1D5EB67E-5B4C-406D-B71D-BA3D3AE3D8FA</title>    <desc>Created with sketchtool.</desc>    <defs></defs>    <g id="Homepage" stroke="none" stroke-width="1" fill="none" fill-rule="evenodd">        <g id="1.1-Homepage" transform="translate(-404.000000, -2618.000000)" stroke="#5C6C79" stroke-width="0.2" fill="#5C6C79">            <g id="Group-23" transform="translate(0.000000, 2460.000000)">                <path d="M419.025795,169.851384 C419.127809,169.953398 419.127809,170.118551 419.025795,170.220304 L418.294738,170.952144 C418.243861,171.00302 418.177069,171.028589 418.110278,171.028589 C418.043486,171.028589 417.976694,171.00302 417.925817,170.952144 C417.823803,170.850391 417.823803,170.684977 417.925817,170.583223 L418.472414,170.036105 L415.868056,167.431486 L414.566138,168.733665 C413.734371,169.565431 412.091189,169.600914 410.294855,167.80458 C408.631583,166.141308 408.538439,164.609271 409.194095,163.731064 L407.135812,161.672259 C407.034059,161.570506 407.034059,161.405092 407.135812,161.303339 C407.237826,161.201585 407.402979,161.201585 407.504732,161.303339 L409.734169,163.533297 C409.836183,163.635051 409.836183,163.800204 409.734169,163.902218 C409.086341,164.550307 409.122607,165.894231 410.663775,167.43566 C412.205205,168.97709 413.549129,169.012573 414.197218,168.364744 L415.683596,166.878105 C415.781436,166.780266 415.954677,166.780266 416.052516,166.878105 L419.025795,169.851384 L419.025795,169.851384 L419.025795,169.851384 Z M415.309458,169.108064 C415.207704,169.00605 415.042551,169.00605 414.940537,169.108064 C414.838784,169.210078 414.838784,169.37497 414.940537,169.476984 L416.982122,171.518569 C415.898582,172.508445 414.775906,172.73465 413.549129,172.209186 C413.531126,172.202142 411.711311,171.456735 409.177136,168.922299 C406.652615,166.397778 405.897033,164.568048 405.881117,164.530217 C405.228332,163.224907 405.474888,162.214942 406.761412,160.928939 L408.063331,159.627021 L410.667689,162.231118 L410.108829,162.789978 C410.006815,162.891731 410.006815,163.056884 410.108829,163.158898 C410.210582,163.260651 410.375736,163.260651 410.47775,163.158898 L411.22133,162.415578 C411.270119,162.366528 411.297515,162.300258 411.297515,162.231118 C411.297515,162.161978 411.270119,162.095447 411.22133,162.046658 L408.247791,159.07338 C408.149951,158.97554 407.97671,158.97554 407.87887,159.07338 L406.392492,160.560019 C404.93377,162.01848 404.650426,163.236126 405.405226,164.743899 C405.436795,164.821648 406.198639,166.681904 408.807955,169.29122 C411.417531,171.900796 413.277526,172.66264 413.349797,172.691339 C413.840299,172.90189 414.322452,173.006774 414.794691,173.006774 C415.754823,173.006774 416.673732,172.572627 417.539416,171.706943 C417.588467,171.658154 417.615862,171.591623 417.615862,171.522483 C417.615862,171.453343 417.588467,171.387073 417.539416,171.338023 L415.309458,169.108064 L415.309458,169.108064 L415.309458,169.108064 Z" id="icn_Phone"></path>            </g>        </g>    </g></svg>