<?xml version="1.0" encoding="UTF-8" standalone="no"?><svg width="16px" height="13px" viewBox="0 0 16 13" version="1.1" xmlns="http://www.w3.org/2000/svg" xmlns:xlink="http://www.w3.org/1999/xlink">        <title>D84EBD3A-AB91-4957-9192-A6106CF9E5E9</title>    <desc>Created with sketchtool.</desc>    <defs></defs>    <g id="Homepage" stroke="none" stroke-width="1" fill="none" fill-rule="evenodd">        <g id="1.1-Homepage" transform="translate(-404.000000, -2589.000000)" stroke="#5C6C79" stroke-width="0.2" fill="#5C6C79">            <g id="Group-23" transform="translate(0.000000, 2460.000000)">                <g id="icn_Email" transform="translate(405.000000, 130.000000)">                    <path d="M0.651162791,10.195312 L13.3488372,10.195312 L13.3488372,0.784254767 L0.651162791,0.784254767 L0.651162791,10.195312 L0.651162791,10.195312 Z M0.651813953,0 C0.292372093,0 0,0.351542199 0,0.785235085 L0,10.1943317 C0,10.6266521 0.291883721,10.9795667 0.651813953,10.9795667 L13.348186,10.9795667 C13.7076279,10.9795667 14,10.6280245 14,10.1943317 L14,0.785235085 C14,0.352914645 13.7081163,0 13.348186,0 L0.651813953,0 Z" id="Shape"></path>                    <path d="M1.14690933,3.15503085 L6.22132321,7.20727523 C6.43979389,7.38157586 6.71985282,7.46862814 6.99991176,7.46862814 C7.28014718,7.46862814 7.56038259,7.38157586 7.77867679,7.20727523 L12.8530907,3.15503085 C13.0112084,3.02856977 13.0473849,2.78349016 12.9337378,2.60762103 C12.8197377,2.43194796 12.5991494,2.3917549 12.4410317,2.51821598 L7.3666178,6.57046036 C7.17479419,6.72358611 6.82520581,6.72358611 6.6333822,6.57046036 L1.55896833,2.51821598 C1.40067415,2.39195096 1.18008582,2.43194796 1.06626224,2.60762103 C0.952615136,2.78349016 0.988791622,3.02856977 1.14690933,3.15503085" id="Shape"></path>                </g>            </g>        </g>    </g></svg>